<svg width="2031" height="450" xmlns="http://www.w3.org/2000/svg"><g><path d="M-9.843352940912183,-51.714052060476476L-68.52157581881349,237.0755469697604L-19.929028781892477,76.77552856372296Z" fill="#006dcc" stroke="#006dcc"/><path d="M-9.843352940912183,-51.714052060476476L-19.929028781892477,76.77552856372296L67.67206160357918,47.717587070218784Z" fill="#0079e2" stroke="#0079e2"/><path d="M-9.843352940912183,-51.714052060476476L67.67206160357918,47.717587070218784L50.80504843847241,-62.102006553569424Z" fill="#0083ea" stroke="#0083ea"/><path d="M50.80504843847241,-62.102006553569424L67.67206160357918,47.717587070218784L159.73604675887657,-18.78234850204251Z" fill="#007ee5" stroke="#007ee5"/><path d="M50.80504843847241,-62.102006553569424L159.73604675887657,-18.78234850204251L307.5219054517007,-55.87425427647369Z" fill="#0082df" stroke="#0082df"/><path d="M50.80504843847241,-62.102006553569424L307.5219054517007,-55.87425427647369L403.2413252819363,-72.24896895213342Z" fill="#0083d9" stroke="#0083d9"/><path d="M159.73604675887657,-18.78234850204251L67.67206160357918,47.717587070218784L122.97287516442873,56.19221335166634Z" fill="#0074d8" stroke="#0074d8"/><path d="M159.73604675887657,-18.78234850204251L122.97287516442873,56.19221335166634L205.69357042340351,45.87239970445059Z" fill="#0072d5" stroke="#0072d5"/><path d="M159.73604675887657,-18.78234850204251L205.69357042340351,45.87239970445059L260.7481385482655,-27.566522316101874Z" fill="#0077dc" stroke="#0077dc"/><path d="M159.73604675887657,-18.78234850204251L260.7481385482655,-27.566522316101874L307.5219054517007,-55.87425427647369Z" fill="#007dda" stroke="#007dda"/><path d="M260.7481385482655,-27.566522316101874L205.69357042340351,45.87239970445059L306.4021244582385,72.4911786994852Z" fill="#006dcd" stroke="#006dcd"/><path d="M260.7481385482655,-27.566522316101874L306.4021244582385,72.4911786994852L307.5219054517007,-55.87425427647369Z" fill="#0074d6" stroke="#0074d6"/><path d="M307.5219054517007,-55.87425427647369L306.4021244582385,72.4911786994852L431.0068925647271,51.315088434435964Z" fill="#006cc9" stroke="#006cc9"/><path d="M307.5219054517007,-55.87425427647369L431.0068925647271,51.315088434435964L403.2413252819363,-72.24896895213342Z" fill="#0075cf" stroke="#0075cf"/><path d="M403.2413252819363,-72.24896895213342L431.0068925647271,51.315088434435964L523.1903773992572,-22.589951097792515Z" fill="#0070ca" stroke="#0070ca"/><path d="M403.2413252819363,-72.24896895213342L523.1903773992572,-22.589951097792515L615.1151992257446,-64.3712214064414Z" fill="#0076c5" stroke="#0076c5"/><path d="M403.2413252819363,-72.24896895213342L615.1151992257446,-64.3712214064414L1672.6235795685964,-78.06813416354184Z" fill="#006aa8" stroke="#006aa8"/><path d="M523.1903773992572,-22.589951097792515L431.0068925647271,51.315088434435964L512.613659191557,37.23074604858027Z" fill="#0066be" stroke="#0066be"/><path d="M523.1903773992572,-22.589951097792515L512.613659191557,37.23074604858027L598.1235721561999,69.01253868109706Z" fill="#0062b8" stroke="#0062b8"/><path d="M523.1903773992572,-22.589951097792515L598.1235721561999,69.01253868109706L648.4378482752406,14.753975150016007Z" fill="#0062b8" stroke="#0062b8"/><path d="M523.1903773992572,-22.589951097792515L648.4378482752406,14.753975150016007L615.1151992257446,-64.3712214064414Z" fill="#006cbf" stroke="#006cbf"/><path d="M615.1151992257446,-64.3712214064414L648.4378482752406,14.753975150016007L707.4671301751184,-22.469796615064652Z" fill="#0069ba" stroke="#0069ba"/><path d="M615.1151992257446,-64.3712214064414L707.4671301751184,-22.469796615064652L751.8952719668008,-38.4611999698471Z" fill="#006cb8" stroke="#006cb8"/><path d="M615.1151992257446,-64.3712214064414L751.8952719668008,-38.4611999698471L870.184507457045,-49.91761602281098Z" fill="#006cb4" stroke="#006cb4"/><path d="M615.1151992257446,-64.3712214064414L870.184507457045,-49.91761602281098L1026.4071354266212,-48.38166886674189Z" fill="#0068ad" stroke="#0068ad"/><path d="M615.1151992257446,-64.3712214064414L1026.4071354266212,-48.38166886674189L1672.6235795685964,-78.06813416354184Z" fill="#006098" stroke="#006098"/><path d="M707.4671301751184,-22.469796615064652L648.4378482752406,14.753975150016007L784.7100878251954,78.61385131083142Z" fill="#005cad" stroke="#005cad"/><path d="M707.4671301751184,-22.469796615064652L784.7100878251954,78.61385131083142L751.8952719668008,-38.4611999698471Z" fill="#005eb1" stroke="#005eb1"/><path d="M751.8952719668008,-38.4611999698471L784.7100878251954,78.61385131083142L827.6139942380604,31.069620156966153Z" fill="#0059a7" stroke="#0059a7"/><path d="M751.8952719668008,-38.4611999698471L827.6139942380604,31.069620156966153L870.184507457045,-49.91761602281098Z" fill="#0062ae" stroke="#0062ae"/><path d="M870.184507457045,-49.91761602281098L827.6139942380604,31.069620156966153L962.6460669614797,51.30866995977544Z" fill="#0058a5" stroke="#0058a5"/><path d="M870.184507457045,-49.91761602281098L962.6460669614797,51.30866995977544L980.5901957014846,-13.78575930251695Z" fill="#0059a5" stroke="#0059a5"/><path d="M870.184507457045,-49.91761602281098L980.5901957014846,-13.78575930251695L1026.4071354266212,-48.38166886674189Z" fill="#0060a4" stroke="#0060a4"/><path d="M980.5901957014846,-13.78575930251695L962.6460669614797,51.30866995977544L1000.6965138172224,67.81169107125106Z" fill="#004e94" stroke="#004e94"/><path d="M980.5901957014846,-13.78575930251695L1000.6965138172224,67.81169107125106L1026.4071354266212,-48.38166886674189Z" fill="#00559f" stroke="#00559f"/><path d="M1026.4071354266212,-48.38166886674189L1000.6965138172224,67.81169107125106L1102.5337669209973,-29.76951558988577Z" fill="#00559d" stroke="#00559d"/><path d="M1026.4071354266212,-48.38166886674189L1102.5337669209973,-29.76951558988577L1271.218467869453,-41.651568450134235Z" fill="#005996" stroke="#005996"/><path d="M1026.4071354266212,-48.38166886674189L1271.218467869453,-41.651568450134235L1672.6235795685964,-78.06813416354184Z" fill="#005488" stroke="#005488"/><path d="M1102.5337669209973,-29.76951558988577L1000.6965138172224,67.81169107125106L1152.9988057028431,73.25388493322546Z" fill="#00498b" stroke="#00498b"/><path d="M1102.5337669209973,-29.76951558988577L1152.9988057028431,73.25388493322546L1224.80759784905,-14.435082541090594Z" fill="#004d90" stroke="#004d90"/><path d="M1102.5337669209973,-29.76951558988577L1224.80759784905,-14.435082541090594L1271.218467869453,-41.651568450134235Z" fill="#005491" stroke="#005491"/><path d="M1224.80759784905,-14.435082541090594L1152.9988057028431,73.25388493322546L1228.310228702862,21.926637066737953Z" fill="#004786" stroke="#004786"/><path d="M1224.80759784905,-14.435082541090594L1228.310228702862,21.926637066737953L1271.218467869453,-41.651568450134235Z" fill="#004e8e" stroke="#004e8e"/><path d="M1271.218467869453,-41.651568450134235L1228.310228702862,21.926637066737953L1285.7228548729374,46.91757354749699Z" fill="#004889" stroke="#004889"/><path d="M1271.218467869453,-41.651568450134235L1285.7228548729374,46.91757354749699L1396.4535918670986,11.662365432080337Z" fill="#004786" stroke="#004786"/><path d="M1271.218467869453,-41.651568450134235L1396.4535918670986,11.662365432080337L1429.7462745393134,-25.671790173089065Z" fill="#004a85" stroke="#004a85"/><path d="M1271.218467869453,-41.651568450134235L1429.7462745393134,-25.671790173089065L1672.6235795685964,-78.06813416354184Z" fill="#005080" stroke="#005080"/><path d="M1429.7462745393134,-25.671790173089065L1396.4535918670986,11.662365432080337L1496.7145169319383,-10.618275710791494Z" fill="#004780" stroke="#004780"/><path d="M1429.7462745393134,-25.671790173089065L1496.7145169319383,-10.618275710791494L1578.155041299783,-30.870201392552474Z" fill="#004a80" stroke="#004a80"/><path d="M1429.7462745393134,-25.671790173089065L1578.155041299783,-30.870201392552474L1672.6235795685964,-78.06813416354184Z" fill="#004f80" stroke="#004f80"/><path d="M1496.7145169319383,-10.618275710791494L1396.4535918670986,11.662365432080337L1495.4821387339764,77.47629929407822Z" fill="#003f75" stroke="#003f75"/><path d="M1496.7145169319383,-10.618275710791494L1495.4821387339764,77.47629929407822L1539.5606316966582,75.01396282214056Z" fill="#003b6d" stroke="#003b6d"/><path d="M1496.7145169319383,-10.618275710791494L1539.5606316966582,75.01396282214056L1578.155041299783,-30.870201392552474Z" fill="#00437b" stroke="#00437b"/><path d="M1578.155041299783,-30.870201392552474L1539.5606316966582,75.01396282214056L1630.146467336976,40.27270918833322Z" fill="#003f74" stroke="#003f74"/><path d="M1578.155041299783,-30.870201392552474L1630.146467336976,40.27270918833322L1672.6235795685964,-78.06813416354184Z" fill="#004a80" stroke="#004a80"/><path d="M1672.6235795685964,-78.06813416354184L1630.146467336976,40.27270918833322L1731.7630555005348,-10.149872577233396Z" fill="#004980" stroke="#004980"/><path d="M1672.6235795685964,-78.06813416354184L1731.7630555005348,-10.149872577233396L1823.9528356517174,-75.38446092284059Z" fill="#005180" stroke="#005180"/><path d="M1672.6235795685964,-78.06813416354184L1823.9528356517174,-75.38446092284059L2105.6604844738736,-76.91331781354373Z" fill="#005680" stroke="#005680"/><path d="M1731.7630555005348,-10.149872577233396L1630.146467336976,40.27270918833322L1772.9109698140337,102.71699415911388Z" fill="#003b6e" stroke="#003b6e"/><path d="M1731.7630555005348,-10.149872577233396L1772.9109698140337,102.71699415911388L1786.2148660005246,35.803328629768046Z" fill="#003c6f" stroke="#003c6f"/><path d="M1731.7630555005348,-10.149872577233396L1786.2148660005246,35.803328629768046L1823.9528356517174,-75.38446092284059Z" fill="#004980" stroke="#004980"/><path d="M1823.9528356517174,-75.38446092284059L1786.2148660005246,35.803328629768046L1864.0176295865103,50.372978014216116Z" fill="#00447e" stroke="#00447e"/><path d="M1823.9528356517174,-75.38446092284059L1864.0176295865103,50.372978014216116L1949.033342382502,-64.17352558441256Z" fill="#004c80" stroke="#004c80"/><path d="M1823.9528356517174,-75.38446092284059L1949.033342382502,-64.17352558441256L2105.6604844738736,-76.91331781354373Z" fill="#005580" stroke="#005580"/><path d="M1949.033342382502,-64.17352558441256L1864.0176295865103,50.372978014216116L1943.468105794451,59.5741682623752Z" fill="#00427a" stroke="#00427a"/><path d="M1949.033342382502,-64.17352558441256L1943.468105794451,59.5741682623752L2020.9881998456117,16.69815791692457Z" fill="#00447e" stroke="#00447e"/><path d="M1949.033342382502,-64.17352558441256L2020.9881998456117,16.69815791692457L2026.2661832008503,-56.48404356823704Z" fill="#004d80" stroke="#004d80"/><path d="M1949.033342382502,-64.17352558441256L2026.2661832008503,-56.48404356823704L2105.6604844738736,-76.91331781354373Z" fill="#005480" stroke="#005480"/><path d="M2026.2661832008503,-56.48404356823704L2020.9881998456117,16.69815791692457L2082.1207299844755,38.42702141681123Z" fill="#004580" stroke="#004580"/><path d="M2026.2661832008503,-56.48404356823704L2082.1207299844755,38.42702141681123L2105.6604844738736,-76.91331781354373Z" fill="#004c80" stroke="#004c80"/><path d="M2105.6604844738736,-76.91331781354373L2082.1207299844755,38.42702141681123L2102.85849745669,149.65626136823352Z" fill="#003d71" stroke="#003d71"/><path d="M2105.6604844738736,-76.91331781354373L2102.85849745669,149.65626136823352L2119.9061455758365,493.81806576076184Z" fill="#001b34" stroke="#001b34"/><path d="M-19.929028781892477,76.77552856372296L-68.52157581881349,237.0755469697604L-22.562961578378307,144.53102821984345Z" fill="#005eb2" stroke="#005eb2"/><path d="M-19.929028781892477,76.77552856372296L-22.562961578378307,144.53102821984345L72.68833785731005,107.83087816782201Z" fill="#0066bf" stroke="#0066bf"/><path d="M-19.929028781892477,76.77552856372296L72.68833785731005,107.83087816782201L67.67206160357918,47.717587070218784Z" fill="#006cca" stroke="#006cca"/><path d="M67.67206160357918,47.717587070218784L72.68833785731005,107.83087816782201L122.97287516442873,56.19221335166634Z" fill="#006cca" stroke="#006cca"/><path d="M122.97287516442873,56.19221335166634L72.68833785731005,107.83087816782201L170.8332161869476,130.58860680578826Z" fill="#0064bb" stroke="#0064bb"/><path d="M122.97287516442873,56.19221335166634L170.8332161869476,130.58860680578826L205.69357042340351,45.87239970445059Z" fill="#0067c1" stroke="#0067c1"/><path d="M205.69357042340351,45.87239970445059L170.8332161869476,130.58860680578826L207.2228361003732,119.61789192625719Z" fill="#0061b6" stroke="#0061b6"/><path d="M205.69357042340351,45.87239970445059L207.2228361003732,119.61789192625719L306.4021244582385,72.4911786994852Z" fill="#0063bb" stroke="#0063bb"/><path d="M306.4021244582385,72.4911786994852L207.2228361003732,119.61789192625719L306.4551867065537,168.8253410761888Z" fill="#0059a8" stroke="#0059a8"/><path d="M306.4021244582385,72.4911786994852L306.4551867065537,168.8253410761888L386.9311329319748,157.60666580967558Z" fill="#00539e" stroke="#00539e"/><path d="M306.4021244582385,72.4911786994852L386.9311329319748,157.60666580967558L431.0068925647271,51.315088434435964Z" fill="#005baa" stroke="#005baa"/><path d="M431.0068925647271,51.315088434435964L386.9311329319748,157.60666580967558L474.4947885445834,142.5565237237533Z" fill="#00539d" stroke="#00539d"/><path d="M431.0068925647271,51.315088434435964L474.4947885445834,142.5565237237533L512.613659191557,37.23074604858027Z" fill="#005aa9" stroke="#005aa9"/><path d="M512.613659191557,37.23074604858027L474.4947885445834,142.5565237237533L556.3445340860759,153.0548094059814Z" fill="#005199" stroke="#005199"/><path d="M512.613659191557,37.23074604858027L556.3445340860759,153.0548094059814L598.1235721561999,69.01253868109706Z" fill="#0054a0" stroke="#0054a0"/><path d="M598.1235721561999,69.01253868109706L556.3445340860759,153.0548094059814L660.6761226822391,153.0040441307977Z" fill="#004a8c" stroke="#004a8c"/><path d="M598.1235721561999,69.01253868109706L660.6761226822391,153.0040441307977L648.4378482752406,14.753975150016007Z" fill="#00539d" stroke="#00539d"/><path d="M648.4378482752406,14.753975150016007L660.6761226822391,153.0040441307977L784.7100878251954,78.61385131083142Z" fill="#005096" stroke="#005096"/><path d="M784.7100878251954,78.61385131083142L660.6761226822391,153.0040441307977L778.7377189146482,141.84973071694816Z" fill="#004482" stroke="#004482"/><path d="M784.7100878251954,78.61385131083142L778.7377189146482,141.84973071694816L881.3814185693471,164.89271986755742Z" fill="#00407b" stroke="#00407b"/><path d="M784.7100878251954,78.61385131083142L881.3814185693471,164.89271986755742L827.6139942380604,31.069620156966153Z" fill="#004889" stroke="#004889"/><path d="M827.6139942380604,31.069620156966153L881.3814185693471,164.89271986755742L962.6460669614797,51.30866995977544Z" fill="#004788" stroke="#004788"/><path d="M962.6460669614797,51.30866995977544L881.3814185693471,164.89271986755742L964.6191933260039,136.28791341828716Z" fill="#003e76" stroke="#003e76"/><path d="M962.6460669614797,51.30866995977544L964.6191933260039,136.28791341828716L1000.6965138172224,67.81169107125106Z" fill="#004380" stroke="#004380"/><path d="M1000.6965138172224,67.81169107125106L964.6191933260039,136.28791341828716L1005.99363579503,162.09815377744695Z" fill="#003a70" stroke="#003a70"/><path d="M1000.6965138172224,67.81169107125106L1005.99363579503,162.09815377744695L1144.6720592127829,143.77838317766913Z" fill="#00376b" stroke="#00376b"/><path d="M1000.6965138172224,67.81169107125106L1144.6720592127829,143.77838317766913L1152.9988057028431,73.25388493322546Z" fill="#003c73" stroke="#003c73"/><path d="M1152.9988057028431,73.25388493322546L1144.6720592127829,143.77838317766913L1208.4337761688755,149.99501416237203Z" fill="#003363" stroke="#003363"/><path d="M1152.9988057028431,73.25388493322546L1208.4337761688755,149.99501416237203L1228.310228702862,21.926637066737953Z" fill="#003b71" stroke="#003b71"/><path d="M1228.310228702862,21.926637066737953L1208.4337761688755,149.99501416237203L1285.7228548729374,46.91757354749699Z" fill="#003b71" stroke="#003b71"/><path d="M1285.7228548729374,46.91757354749699L1208.4337761688755,149.99501416237203L1302.225224086404,126.19640080079594Z" fill="#003261" stroke="#003261"/><path d="M1285.7228548729374,46.91757354749699L1302.225224086404,126.19640080079594L1396.4535918670986,11.662365432080337Z" fill="#003a6f" stroke="#003a6f"/><path d="M1396.4535918670986,11.662365432080337L1302.225224086404,126.19640080079594L1387.5093278500588,159.03678191393794Z" fill="#00305d" stroke="#00305d"/><path d="M1396.4535918670986,11.662365432080337L1387.5093278500588,159.03678191393794L1495.4821387339764,77.47629929407822Z" fill="#00335f" stroke="#00335f"/><path d="M1495.4821387339764,77.47629929407822L1387.5093278500588,159.03678191393794L1483.5524841860467,141.31266737764946Z" fill="#00294d" stroke="#00294d"/><path d="M1495.4821387339764,77.47629929407822L1483.5524841860467,141.31266737764946L1539.5606316966582,75.01396282214056Z" fill="#002f59" stroke="#002f59"/><path d="M1539.5606316966582,75.01396282214056L1483.5524841860467,141.31266737764946L1550.885233490156,159.1196359059738Z" fill="#00294e" stroke="#00294e"/><path d="M1539.5606316966582,75.01396282214056L1550.885233490156,159.1196359059738L1663.5731769233075,132.9457813619794Z" fill="#002a4f" stroke="#002a4f"/><path d="M1539.5606316966582,75.01396282214056L1663.5731769233075,132.9457813619794L1630.146467336976,40.27270918833322Z" fill="#00335f" stroke="#00335f"/><path d="M1630.146467336976,40.27270918833322L1663.5731769233075,132.9457813619794L1772.9109698140337,102.71699415911388Z" fill="#00315b" stroke="#00315b"/><path d="M1786.2148660005246,35.803328629768046L1772.9109698140337,102.71699415911388L1864.0176295865103,50.372978014216116Z" fill="#003767" stroke="#003767"/><path d="M1864.0176295865103,50.372978014216116L1772.9109698140337,102.71699415911388L1838.4152597177901,159.11046260095554Z" fill="#002e56" stroke="#002e56"/><path d="M1864.0176295865103,50.372978014216116L1838.4152597177901,159.11046260095554L1951.744283456737,136.25743117324376Z" fill="#002b52" stroke="#002b52"/><path d="M1864.0176295865103,50.372978014216116L1951.744283456737,136.25743117324376L1943.468105794451,59.5741682623752Z" fill="#00335f" stroke="#00335f"/><path d="M1943.468105794451,59.5741682623752L1951.744283456737,136.25743117324376L1996.771407264194,160.5887436813433Z" fill="#002b50" stroke="#002b50"/><path d="M1943.468105794451,59.5741682623752L1996.771407264194,160.5887436813433L2020.9881998456117,16.69815791692457Z" fill="#003460" stroke="#003460"/><path d="M2020.9881998456117,16.69815791692457L1996.771407264194,160.5887436813433L2082.1207299844755,38.42702141681123Z" fill="#003563" stroke="#003563"/><path d="M2082.1207299844755,38.42702141681123L1996.771407264194,160.5887436813433L2102.85849745669,149.65626136823352Z" fill="#002b51" stroke="#002b51"/><path d="M-22.562961578378307,144.53102821984345L-68.52157581881349,237.0755469697604L59.07188311968345,237.07486407941298Z" fill="#00519b" stroke="#00519b"/><path d="M-22.562961578378307,144.53102821984345L59.07188311968345,237.07486407941298L72.68833785731005,107.83087816782201Z" fill="#0059a8" stroke="#0059a8"/><path d="M72.68833785731005,107.83087816782201L59.07188311968345,237.07486407941298L133.76836823565884,223.87559584797265Z" fill="#00519a" stroke="#00519a"/><path d="M72.68833785731005,107.83087816782201L133.76836823565884,223.87559584797265L170.8332161869476,130.58860680578826Z" fill="#0057a5" stroke="#0057a5"/><path d="M170.8332161869476,130.58860680578826L133.76836823565884,223.87559584797265L222.7586730218032,251.3072528891494Z" fill="#004a8e" stroke="#004a8e"/><path d="M170.8332161869476,130.58860680578826L222.7586730218032,251.3072528891494L207.2228361003732,119.61789192625719Z" fill="#00519a" stroke="#00519a"/><path d="M207.2228361003732,119.61789192625719L222.7586730218032,251.3072528891494L306.4551867065537,168.8253410761888Z" fill="#004c92" stroke="#004c92"/><path d="M306.4551867065537,168.8253410761888L222.7586730218032,251.3072528891494L281.5738443765571,250.34413020708374Z" fill="#00427e" stroke="#00427e"/><path d="M306.4551867065537,168.8253410761888L281.5738443765571,250.34413020708374L389.81231518084775,197.7887206094166Z" fill="#004481" stroke="#004481"/><path d="M306.4551867065537,168.8253410761888L389.81231518084775,197.7887206094166L386.9311329319748,157.60666580967558Z" fill="#00498b" stroke="#00498b"/><path d="M386.9311329319748,157.60666580967558L389.81231518084775,197.7887206094166L474.4947885445834,142.5565237237533Z" fill="#00488a" stroke="#00488a"/><path d="M474.4947885445834,142.5565237237533L389.81231518084775,197.7887206094166L474.5530044585669,234.31842776919336Z" fill="#00427e" stroke="#00427e"/><path d="M474.4947885445834,142.5565237237533L474.5530044585669,234.31842776919336L556.3445340860759,153.0548094059814Z" fill="#004380" stroke="#004380"/><path d="M556.3445340860759,153.0548094059814L474.5530044585669,234.31842776919336L590.5706612554175,192.5262509879524Z" fill="#003d76" stroke="#003d76"/><path d="M556.3445340860759,153.0548094059814L590.5706612554175,192.5262509879524L660.6761226822391,153.0040441307977Z" fill="#00417c" stroke="#00417c"/><path d="M660.6761226822391,153.0040441307977L590.5706612554175,192.5262509879524L679.9594158965602,254.25436545998568Z" fill="#00376b" stroke="#00376b"/><path d="M660.6761226822391,153.0040441307977L679.9594158965602,254.25436545998568L782.3586551429655,237.2577737357488Z" fill="#003261" stroke="#003261"/><path d="M660.6761226822391,153.0040441307977L782.3586551429655,237.2577737357488L778.7377189146482,141.84973071694816Z" fill="#00386d" stroke="#00386d"/><path d="M778.7377189146482,141.84973071694816L782.3586551429655,237.2577737357488L881.3814185693471,164.89271986755742Z" fill="#003566" stroke="#003566"/><path d="M881.3814185693471,164.89271986755742L782.3586551429655,237.2577737357488L858.4897803652758,243.27025400559552Z" fill="#002c57" stroke="#002c57"/><path d="M881.3814185693471,164.89271986755742L858.4897803652758,243.27025400559552L956.9315001526813,195.11993133833124Z" fill="#002d58" stroke="#002d58"/><path d="M881.3814185693471,164.89271986755742L956.9315001526813,195.11993133833124L964.6191933260039,136.28791341828716Z" fill="#003363" stroke="#003363"/><path d="M964.6191933260039,136.28791341828716L956.9315001526813,195.11993133833124L1005.99363579503,162.09815377744695Z" fill="#003160" stroke="#003160"/><path d="M1005.99363579503,162.09815377744695L956.9315001526813,195.11993133833124L1026.5184543286905,201.90875437042226Z" fill="#002c56" stroke="#002c56"/><path d="M1005.99363579503,162.09815377744695L1026.5184543286905,201.90875437042226L1144.6720592127829,143.77838317766913Z" fill="#002d58" stroke="#002d58"/><path d="M1144.6720592127829,143.77838317766913L1026.5184543286905,201.90875437042226L1097.6639629849367,240.8024446891407Z" fill="#00264c" stroke="#00264c"/><path d="M1144.6720592127829,143.77838317766913L1097.6639629849367,240.8024446891407L1198.0906627529444,210.80092401543254Z" fill="#002346" stroke="#002346"/><path d="M1144.6720592127829,143.77838317766913L1198.0906627529444,210.80092401543254L1208.4337761688755,149.99501416237203Z" fill="#00284f" stroke="#00284f"/><path d="M1208.4337761688755,149.99501416237203L1198.0906627529444,210.80092401543254L1302.225224086404,126.19640080079594Z" fill="#00274e" stroke="#00274e"/><path d="M1302.225224086404,126.19640080079594L1198.0906627529444,210.80092401543254L1339.8330024977186,242.79594551874098Z" fill="#001e3e" stroke="#001e3e"/><path d="M1302.225224086404,126.19640080079594L1339.8330024977186,242.79594551874098L1367.4709365468202,195.96210480368103Z" fill="#001d3b" stroke="#001d3b"/><path d="M1302.225224086404,126.19640080079594L1367.4709365468202,195.96210480368103L1387.5093278500588,159.03678191393794Z" fill="#002346" stroke="#002346"/><path d="M1387.5093278500588,159.03678191393794L1367.4709365468202,195.96210480368103L1475.4126038905185,219.66615992155837Z" fill="#001a35" stroke="#001a35"/><path d="M1387.5093278500588,159.03678191393794L1475.4126038905185,219.66615992155837L1483.5524841860467,141.31266737764946Z" fill="#001e3a" stroke="#001e3a"/><path d="M1483.5524841860467,141.31266737764946L1475.4126038905185,219.66615992155837L1550.885233490156,159.1196359059738Z" fill="#001e3a" stroke="#001e3a"/><path d="M1550.885233490156,159.1196359059738L1475.4126038905185,219.66615992155837L1547.3669518466438,225.61693299240935Z" fill="#00182f" stroke="#00182f"/><path d="M1550.885233490156,159.1196359059738L1547.3669518466438,225.61693299240935L1663.5731769233075,132.9457813619794Z" fill="#001f3b" stroke="#001f3b"/><path d="M1663.5731769233075,132.9457813619794L1547.3669518466438,225.61693299240935L1693.3414264710364,219.3333702227156Z" fill="#001a33" stroke="#001a33"/><path d="M1663.5731769233075,132.9457813619794L1693.3414264710364,219.3333702227156L1736.9184886592263,220.97747075027917Z" fill="#001a33" stroke="#001a33"/><path d="M1663.5731769233075,132.9457813619794L1736.9184886592263,220.97747075027917L1772.9109698140337,102.71699415911388Z" fill="#002343" stroke="#002343"/><path d="M1772.9109698140337,102.71699415911388L1736.9184886592263,220.97747075027917L1838.4152597177901,159.11046260095554Z" fill="#00213f" stroke="#00213f"/><path d="M1838.4152597177901,159.11046260095554L1736.9184886592263,220.97747075027917L1851.9474395821444,223.30228482003545Z" fill="#00182f" stroke="#00182f"/><path d="M1838.4152597177901,159.11046260095554L1851.9474395821444,223.30228482003545L1901.1235212847919,243.7632649868628Z" fill="#00162c" stroke="#00162c"/><path d="M1838.4152597177901,159.11046260095554L1901.1235212847919,243.7632649868628L1951.744283456737,136.25743117324376Z" fill="#001d38" stroke="#001d38"/><path d="M1951.744283456737,136.25743117324376L1901.1235212847919,243.7632649868628L1996.771407264194,160.5887436813433Z" fill="#001d38" stroke="#001d38"/><path d="M1996.771407264194,160.5887436813433L1901.1235212847919,243.7632649868628L2021.2775812339128,225.67797944398296Z" fill="#00162c" stroke="#00162c"/><path d="M1996.771407264194,160.5887436813433L2021.2775812339128,225.67797944398296L2093.356572146777,204.02817693680169Z" fill="#001931" stroke="#001931"/><path d="M1996.771407264194,160.5887436813433L2093.356572146777,204.02817693680169L2102.85849745669,149.65626136823352Z" fill="#001f3b" stroke="#001f3b"/><path d="M2102.85849745669,149.65626136823352L2093.356572146777,204.02817693680169L2119.9061455758365,493.81806576076184Z" fill="#00060f" stroke="#00060f"/><path d="M-68.52157581881349,237.0755469697604L-73.49258990722343,529.1004248417426L-52.87215863791744,402.91573553664864Z" fill="#003d72" stroke="#003d72"/><path d="M-68.52157581881349,237.0755469697604L-52.87215863791744,402.91573553664864L-39.11841490070361,301.6945005155402Z" fill="#003c73" stroke="#003c73"/><path d="M-68.52157581881349,237.0755469697604L-39.11841490070361,301.6945005155402L59.07188311968345,237.07486407941298Z" fill="#004686" stroke="#004686"/><path d="M59.07188311968345,237.07486407941298L-39.11841490070361,301.6945005155402L15.150725079060043,324.53633407872906Z" fill="#003e78" stroke="#003e78"/><path d="M59.07188311968345,237.07486407941298L15.150725079060043,324.53633407872906L126.28939861859658,324.6672376399756Z" fill="#003a71" stroke="#003a71"/><path d="M59.07188311968345,237.07486407941298L126.28939861859658,324.6672376399756L133.76836823565884,223.87559584797265Z" fill="#00407c" stroke="#00407c"/><path d="M133.76836823565884,223.87559584797265L126.28939861859658,324.6672376399756L222.7586730218032,251.3072528891494Z" fill="#003d76" stroke="#003d76"/><path d="M222.7586730218032,251.3072528891494L126.28939861859658,324.6672376399756L255.21215049272905,312.00703406922105Z" fill="#003466" stroke="#003466"/><path d="M222.7586730218032,251.3072528891494L255.21215049272905,312.00703406922105L281.5738443765571,250.34413020708374Z" fill="#00386d" stroke="#00386d"/><path d="M281.5738443765571,250.34413020708374L255.21215049272905,312.00703406922105L323.2241770436702,323.7422570091703Z" fill="#003161" stroke="#003161"/><path d="M281.5738443765571,250.34413020708374L323.2241770436702,323.7422570091703L369.84650515278975,280.4667294488346Z" fill="#003262" stroke="#003262"/><path d="M281.5738443765571,250.34413020708374L369.84650515278975,280.4667294488346L389.81231518084775,197.7887206094166Z" fill="#003a71" stroke="#003a71"/><path d="M389.81231518084775,197.7887206094166L369.84650515278975,280.4667294488346L474.5530044585669,234.31842776919336Z" fill="#00396e" stroke="#00396e"/><path d="M474.5530044585669,234.31842776919336L369.84650515278975,280.4667294488346L487.98704554745837,342.11648512494094Z" fill="#002d58" stroke="#002d58"/><path d="M474.5530044585669,234.31842776919336L487.98704554745837,342.11648512494094L601.7630272963208,280.77576218360326Z" fill="#002952" stroke="#002952"/><path d="M474.5530044585669,234.31842776919336L601.7630272963208,280.77576218360326L590.5706612554175,192.5262509879524Z" fill="#003364" stroke="#003364"/><path d="M590.5706612554175,192.5262509879524L601.7630272963208,280.77576218360326L679.9594158965602,254.25436545998568Z" fill="#002f5c" stroke="#002f5c"/><path d="M679.9594158965602,254.25436545998568L601.7630272963208,280.77576218360326L689.5014333037232,326.8865548876925Z" fill="#002347" stroke="#002347"/><path d="M679.9594158965602,254.25436545998568L689.5014333037232,326.8865548876925L743.6591071513503,303.66121079855407Z" fill="#002041" stroke="#002041"/><path d="M679.9594158965602,254.25436545998568L743.6591071513503,303.66121079855407L782.3586551429655,237.2577737357488Z" fill="#00254a" stroke="#00254a"/><path d="M782.3586551429655,237.2577737357488L743.6591071513503,303.66121079855407L858.3534833789408,335.9650594615194Z" fill="#001c3b" stroke="#001c3b"/><path d="M782.3586551429655,237.2577737357488L858.3534833789408,335.9650594615194L858.4897803652758,243.27025400559552Z" fill="#001f40" stroke="#001f40"/><path d="M858.4897803652758,243.27025400559552L858.3534833789408,335.9650594615194L961.804237802007,304.7725044693113Z" fill="#001833" stroke="#001833"/><path d="M858.4897803652758,243.27025400559552L961.804237802007,304.7725044693113L956.9315001526813,195.11993133833124Z" fill="#002143" stroke="#002143"/><path d="M956.9315001526813,195.11993133833124L961.804237802007,304.7725044693113L1026.5184543286905,201.90875437042226Z" fill="#002244" stroke="#002244"/><path d="M1026.5184543286905,201.90875437042226L961.804237802007,304.7725044693113L1036.6999638542202,342.4138783239705Z" fill="#00162f" stroke="#00162f"/><path d="M1026.5184543286905,201.90875437042226L1036.6999638542202,342.4138783239705L1097.6639629849367,240.8024446891407Z" fill="#001934" stroke="#001934"/><path d="M1097.6639629849367,240.8024446891407L1036.6999638542202,342.4138783239705L1122.3102886398071,326.680668449934Z" fill="#000e20" stroke="#000e20"/><path d="M1097.6639629849367,240.8024446891407L1122.3102886398071,326.680668449934L1198.0906627529444,210.80092401543254Z" fill="#00162e" stroke="#00162e"/><path d="M1198.0906627529444,210.80092401543254L1122.3102886398071,326.680668449934L1245.4434387546419,306.11242983709485Z" fill="#000f22" stroke="#000f22"/><path d="M1198.0906627529444,210.80092401543254L1245.4434387546419,306.11242983709485L1339.8330024977186,242.79594551874098Z" fill="#001127" stroke="#001127"/><path d="M1339.8330024977186,242.79594551874098L1245.4434387546419,306.11242983709485L1270.4112256473097,348.88900002903017Z" fill="#000613" stroke="#000613"/><path d="M1339.8330024977186,242.79594551874098L1270.4112256473097,348.88900002903017L1329.1669238708844,372.8429846078279Z" fill="#000309" stroke="#000309"/><path d="M1339.8330024977186,242.79594551874098L1329.1669238708844,372.8429846078279L1430.5753273866994,281.423609816457Z" fill="#00030d" stroke="#00030d"/><path d="M1339.8330024977186,242.79594551874098L1430.5753273866994,281.423609816457L1367.4709365468202,195.96210480368103Z" fill="#001024" stroke="#001024"/><path d="M1367.4709365468202,195.96210480368103L1430.5753273866994,281.423609816457L1475.4126038905185,219.66615992155837Z" fill="#001123" stroke="#001123"/><path d="M1475.4126038905185,219.66615992155837L1430.5753273866994,281.423609816457L1472.1280803376862,303.3896512991603Z" fill="#000914" stroke="#000914"/><path d="M1475.4126038905185,219.66615992155837L1472.1280803376862,303.3896512991603L1547.3669518466438,225.61693299240935Z" fill="#000d1c" stroke="#000d1c"/><path d="M1547.3669518466438,225.61693299240935L1472.1280803376862,303.3896512991603L1598.3188692873125,327.01151168213664Z" fill="#00050e" stroke="#00050e"/><path d="M1547.3669518466438,225.61693299240935L1598.3188692873125,327.01151168213664L1629.9856811866755,323.9534941402476Z" fill="#00040b" stroke="#00040b"/><path d="M1547.3669518466438,225.61693299240935L1629.9856811866755,323.9534941402476L1693.3414264710364,219.3333702227156Z" fill="#000c19" stroke="#000c19"/><path d="M1693.3414264710364,219.3333702227156L1629.9856811866755,323.9534941402476L1778.3983172819694,343.5780459982798Z" fill="#00030a" stroke="#00030a"/><path d="M1693.3414264710364,219.3333702227156L1778.3983172819694,343.5780459982798L1736.9184886592263,220.97747075027917Z" fill="#000b17" stroke="#000b17"/><path d="M1736.9184886592263,220.97747075027917L1778.3983172819694,343.5780459982798L1851.9474395821444,223.30228482003545Z" fill="#000a17" stroke="#000a17"/><path d="M1851.9474395821444,223.30228482003545L1778.3983172819694,343.5780459982798L1874.4948355931292,283.92100860706006Z" fill="#00060e" stroke="#00060e"/><path d="M1851.9474395821444,223.30228482003545L1874.4948355931292,283.92100860706006L1901.1235212847919,243.7632649868628Z" fill="#000d1c" stroke="#000d1c"/><path d="M1901.1235212847919,243.7632649868628L1874.4948355931292,283.92100860706006L1930.5749846717808,323.2169698667739Z" fill="#00060e" stroke="#00060e"/><path d="M1901.1235212847919,243.7632649868628L1930.5749846717808,323.2169698667739L2021.2775812339128,225.67797944398296Z" fill="#000a16" stroke="#000a16"/><path d="M2021.2775812339128,225.67797944398296L1930.5749846717808,323.2169698667739L2036.6626041727684,284.02645970214377Z" fill="#000711" stroke="#000711"/><path d="M2021.2775812339128,225.67797944398296L2036.6626041727684,284.02645970214377L2093.356572146777,204.02817693680169Z" fill="#001021" stroke="#001021"/><path d="M2093.356572146777,204.02817693680169L2036.6626041727684,284.02645970214377L2083.970329468705,314.47951839201613Z" fill="#000915" stroke="#000915"/><path d="M2093.356572146777,204.02817693680169L2083.970329468705,314.47951839201613L2097.3636644815024,417.6743451199358Z" fill="#000003" stroke="#000003"/><path d="M2093.356572146777,204.02817693680169L2097.3636644815024,417.6743451199358L2119.9061455758365,493.81806576076184Z" fill="#000000" stroke="#000000"/><path d="M-39.11841490070361,301.6945005155402L-52.87215863791744,402.91573553664864L13.281294544798715,381.2428836706555Z" fill="#003b6f" stroke="#003b6f"/><path d="M-39.11841490070361,301.6945005155402L13.281294544798715,381.2428836706555L15.150725079060043,324.53633407872906Z" fill="#003a6d" stroke="#003a6d"/><path d="M15.150725079060043,324.53633407872906L13.281294544798715,381.2428836706555L126.28939861859658,324.6672376399756Z" fill="#003869" stroke="#003869"/><path d="M126.28939861859658,324.6672376399756L13.281294544798715,381.2428836706555L131.02331702418698,459.15169891717545Z" fill="#003666" stroke="#003666"/><path d="M126.28939861859658,324.6672376399756L131.02331702418698,459.15169891717545L166.41330525191074,421.5240807948749Z" fill="#003462" stroke="#003462"/><path d="M126.28939861859658,324.6672376399756L166.41330525191074,421.5240807948749L255.21215049272905,312.00703406922105Z" fill="#00335f" stroke="#00335f"/><path d="M255.21215049272905,312.00703406922105L166.41330525191074,421.5240807948749L256.2435992131085,418.56742344581176Z" fill="#00315c" stroke="#00315c"/><path d="M255.21215049272905,312.00703406922105L256.2435992131085,418.56742344581176L303.3071699082613,384.56884063545044Z" fill="#002f58" stroke="#002f58"/><path d="M255.21215049272905,312.00703406922105L303.3071699082613,384.56884063545044L323.2241770436702,323.7422570091703Z" fill="#002e56" stroke="#002e56"/><path d="M323.2241770436702,323.7422570091703L303.3071699082613,384.56884063545044L373.0194761472934,396.3089697751394Z" fill="#002c53" stroke="#002c53"/><path d="M323.2241770436702,323.7422570091703L373.0194761472934,396.3089697751394L369.84650515278975,280.4667294488346Z" fill="#002b52" stroke="#002b52"/><path d="M369.84650515278975,280.4667294488346L373.0194761472934,396.3089697751394L487.98704554745837,342.11648512494094Z" fill="#00294e" stroke="#00294e"/><path d="M487.98704554745837,342.11648512494094L373.0194761472934,396.3089697751394L495.18634107564725,437.80899690634084Z" fill="#00274a" stroke="#00274a"/><path d="M487.98704554745837,342.11648512494094L495.18634107564725,437.80899690634084L583.462335523934,375.95365416189696Z" fill="#002445" stroke="#002445"/><path d="M487.98704554745837,342.11648512494094L583.462335523934,375.95365416189696L601.7630272963208,280.77576218360326Z" fill="#002342" stroke="#002342"/><path d="M601.7630272963208,280.77576218360326L583.462335523934,375.95365416189696L689.5014333037232,326.8865548876925Z" fill="#00203d" stroke="#00203d"/><path d="M689.5014333037232,326.8865548876925L583.462335523934,375.95365416189696L655.0443442370586,426.27250809615435Z" fill="#001f3c" stroke="#001f3c"/><path d="M689.5014333037232,326.8865548876925L655.0443442370586,426.27250809615435L735.1689905640013,414.6754581699208Z" fill="#001d38" stroke="#001d38"/><path d="M689.5014333037232,326.8865548876925L735.1689905640013,414.6754581699208L743.6591071513503,303.66121079855407Z" fill="#001c36" stroke="#001c36"/><path d="M743.6591071513503,303.66121079855407L735.1689905640013,414.6754581699208L858.3534833789408,335.9650594615194Z" fill="#001a32" stroke="#001a32"/><path d="M858.3534833789408,335.9650594615194L735.1689905640013,414.6754581699208L866.7152421414906,389.58820085628855Z" fill="#00182f" stroke="#00182f"/><path d="M858.3534833789408,335.9650594615194L866.7152421414906,389.58820085628855L961.804237802007,304.7725044693113Z" fill="#001529" stroke="#001529"/><path d="M961.804237802007,304.7725044693113L866.7152421414906,389.58820085628855L931.0051188757286,426.756576185343Z" fill="#001427" stroke="#001427"/><path d="M961.804237802007,304.7725044693113L931.0051188757286,426.756576185343L1036.6999638542202,342.4138783239705Z" fill="#001123" stroke="#001123"/><path d="M1036.6999638542202,342.4138783239705L931.0051188757286,426.756576185343L1070.5250859813727,431.2042404349261Z" fill="#001020" stroke="#001020"/><path d="M1036.6999638542202,342.4138783239705L1070.5250859813727,431.2042404349261L1122.3102886398071,326.680668449934Z" fill="#000d1b" stroke="#000d1b"/><path d="M1122.3102886398071,326.680668449934L1070.5250859813727,431.2042404349261L1152.2801427416841,436.8904078987112Z" fill="#000c18" stroke="#000c18"/><path d="M1122.3102886398071,326.680668449934L1152.2801427416841,436.8904078987112L1222.2095767925202,379.5496887469256Z" fill="#000914" stroke="#000914"/><path d="M1122.3102886398071,326.680668449934L1222.2095767925202,379.5496887469256L1245.4434387546419,306.11242983709485Z" fill="#000812" stroke="#000812"/><path d="M1245.4434387546419,306.11242983709485L1222.2095767925202,379.5496887469256L1270.4112256473097,348.88900002903017Z" fill="#00060e" stroke="#00060e"/><path d="M1270.4112256473097,348.88900002903017L1222.2095767925202,379.5496887469256L1329.1669238708844,372.8429846078279Z" fill="#00050c" stroke="#00050c"/><path d="M1430.5753273866994,281.423609816457L1329.1669238708844,372.8429846078279L1414.7822018163681,381.32565323590325Z" fill="#000003" stroke="#000003"/><path d="M1430.5753273866994,281.423609816457L1414.7822018163681,381.32565323590325L1472.1280803376862,303.3896512991603Z" fill="#000000" stroke="#000000"/><path d="M1472.1280803376862,303.3896512991603L1414.7822018163681,381.32565323590325L1495.709191532908,370.79163352005435Z" fill="#000000" stroke="#000000"/><path d="M1472.1280803376862,303.3896512991603L1495.709191532908,370.79163352005435L1598.3188692873125,327.01151168213664Z" fill="#000000" stroke="#000000"/><path d="M1598.3188692873125,327.01151168213664L1495.709191532908,370.79163352005435L1564.2141560984053,405.3865144163135Z" fill="#000000" stroke="#000000"/><path d="M1598.3188692873125,327.01151168213664L1564.2141560984053,405.3865144163135L1668.5598928855748,388.08129197742767Z" fill="#000000" stroke="#000000"/><path d="M1598.3188692873125,327.01151168213664L1668.5598928855748,388.08129197742767L1629.9856811866755,323.9534941402476Z" fill="#000000" stroke="#000000"/><path d="M1629.9856811866755,323.9534941402476L1668.5598928855748,388.08129197742767L1721.7562654456037,381.7675952007728Z" fill="#000000" stroke="#000000"/><path d="M1629.9856811866755,323.9534941402476L1721.7562654456037,381.7675952007728L1778.3983172819694,343.5780459982798Z" fill="#000000" stroke="#000000"/><path d="M1778.3983172819694,343.5780459982798L1721.7562654456037,381.7675952007728L1864.223731989161,373.809020667085Z" fill="#000000" stroke="#000000"/><path d="M1778.3983172819694,343.5780459982798L1864.223731989161,373.809020667085L1874.4948355931292,283.92100860706006Z" fill="#000000" stroke="#000000"/><path d="M1874.4948355931292,283.92100860706006L1864.223731989161,373.809020667085L1930.5749846717808,323.2169698667739Z" fill="#000000" stroke="#000000"/><path d="M1930.5749846717808,323.2169698667739L1864.223731989161,373.809020667085L1922.760328917096,399.3664913300771Z" fill="#000000" stroke="#000000"/><path d="M1930.5749846717808,323.2169698667739L1922.760328917096,399.3664913300771L2029.814616022364,428.4959980585434Z" fill="#000000" stroke="#000000"/><path d="M1930.5749846717808,323.2169698667739L2029.814616022364,428.4959980585434L2036.6626041727684,284.02645970214377Z" fill="#000000" stroke="#000000"/><path d="M2036.6626041727684,284.02645970214377L2029.814616022364,428.4959980585434L2083.970329468705,314.47951839201613Z" fill="#000000" stroke="#000000"/><path d="M2083.970329468705,314.47951839201613L2029.814616022364,428.4959980585434L2097.3636644815024,417.6743451199358Z" fill="#000000" stroke="#000000"/><path d="M-52.87215863791744,402.91573553664864L-73.49258990722343,529.1004248417426L57.541025037353215,511.813142110708Z" fill="#003b6e" stroke="#003b6e"/><path d="M-52.87215863791744,402.91573553664864L57.541025037353215,511.813142110708L13.281294544798715,381.2428836706555Z" fill="#003a6c" stroke="#003a6c"/><path d="M13.281294544798715,381.2428836706555L57.541025037353215,511.813142110708L131.02331702418698,459.15169891717545Z" fill="#003768" stroke="#003768"/><path d="M166.41330525191074,421.5240807948749L131.02331702418698,459.15169891717545L196.18806661093464,474.74063935052226Z" fill="#003360" stroke="#003360"/><path d="M166.41330525191074,421.5240807948749L196.18806661093464,474.74063935052226L256.2435992131085,418.56742344581176Z" fill="#00325d" stroke="#00325d"/><path d="M256.2435992131085,418.56742344581176L196.18806661093464,474.74063935052226L312.05788572918345,471.9077332276879Z" fill="#003059" stroke="#003059"/><path d="M256.2435992131085,418.56742344581176L312.05788572918345,471.9077332276879L303.3071699082613,384.56884063545044Z" fill="#002e57" stroke="#002e57"/><path d="M303.3071699082613,384.56884063545044L312.05788572918345,471.9077332276879L373.0194761472934,396.3089697751394Z" fill="#002c54" stroke="#002c54"/><path d="M373.0194761472934,396.3089697751394L312.05788572918345,471.9077332276879L417.7884239686731,473.74621570100686Z" fill="#002b51" stroke="#002b51"/><path d="M373.0194761472934,396.3089697751394L417.7884239686731,473.74621570100686L495.18634107564725,437.80899690634084Z" fill="#00284c" stroke="#00284c"/><path d="M495.18634107564725,437.80899690634084L417.7884239686731,473.74621570100686L526.8788644284391,489.9018087392633Z" fill="#002648" stroke="#002648"/><path d="M495.18634107564725,437.80899690634084L526.8788644284391,489.9018087392633L583.462335523934,375.95365416189696Z" fill="#002444" stroke="#002444"/><path d="M583.462335523934,375.95365416189696L526.8788644284391,489.9018087392633L655.0443442370586,426.27250809615435Z" fill="#002240" stroke="#002240"/><path d="M655.0443442370586,426.27250809615435L526.8788644284391,489.9018087392633L594.5960351601256,530.4686496462625Z" fill="#002140" stroke="#002140"/><path d="M655.0443442370586,426.27250809615435L594.5960351601256,530.4686496462625L667.3339974015681,467.81545740448524Z" fill="#00203c" stroke="#00203c"/><path d="M655.0443442370586,426.27250809615435L667.3339974015681,467.81545740448524L735.1689905640013,414.6754581699208Z" fill="#001e39" stroke="#001e39"/><path d="M735.1689905640013,414.6754581699208L667.3339974015681,467.81545740448524L782.6331165055701,490.35433411065696Z" fill="#001c36" stroke="#001c36"/><path d="M735.1689905640013,414.6754581699208L782.6331165055701,490.35433411065696L866.7152421414906,389.58820085628855Z" fill="#001930" stroke="#001930"/><path d="M866.7152421414906,389.58820085628855L782.6331165055701,490.35433411065696L873.7150818444069,494.5229599045205Z" fill="#00172d" stroke="#00172d"/><path d="M866.7152421414906,389.58820085628855L873.7150818444069,494.5229599045205L931.0051188757286,426.756576185343Z" fill="#001529" stroke="#001529"/><path d="M931.0051188757286,426.756576185343L873.7150818444069,494.5229599045205L928.9808733112096,501.4239480438289Z" fill="#001428" stroke="#001428"/><path d="M931.0051188757286,426.756576185343L928.9808733112096,501.4239480438289L1025.7922129734065,500.69644721528084Z" fill="#001224" stroke="#001224"/><path d="M931.0051188757286,426.756576185343L1025.7922129734065,500.69644721528084L1070.5250859813727,431.2042404349261Z" fill="#001020" stroke="#001020"/><path d="M1070.5250859813727,431.2042404349261L1025.7922129734065,500.69644721528084L1135.8002591332647,488.4625282574218Z" fill="#000d1b" stroke="#000d1b"/><path d="M1070.5250859813727,431.2042404349261L1135.8002591332647,488.4625282574218L1152.2801427416841,436.8904078987112Z" fill="#000b18" stroke="#000b18"/><path d="M1152.2801427416841,436.8904078987112L1135.8002591332647,488.4625282574218L1228.179998223131,526.5142195902657Z" fill="#000914" stroke="#000914"/><path d="M1152.2801427416841,436.8904078987112L1228.179998223131,526.5142195902657L1222.2095767925202,379.5496887469256Z" fill="#000812" stroke="#000812"/><path d="M1222.2095767925202,379.5496887469256L1228.179998223131,526.5142195902657L1304.225848062833,504.8590788324569Z" fill="#00060e" stroke="#00060e"/><path d="M1222.2095767925202,379.5496887469256L1304.225848062833,504.8590788324569L1329.1669238708844,372.8429846078279Z" fill="#00040b" stroke="#00040b"/><path d="M1329.1669238708844,372.8429846078279L1304.225848062833,504.8590788324569L1366.1065150640084,483.8546136498449Z" fill="#000208" stroke="#000208"/><path d="M1329.1669238708844,372.8429846078279L1366.1065150640084,483.8546136498449L1414.7822018163681,381.32565323590325Z" fill="#000105" stroke="#000105"/><path d="M1414.7822018163681,381.32565323590325L1366.1065150640084,483.8546136498449L1489.9573439855953,488.4754529802962Z" fill="#000001" stroke="#000001"/><path d="M1414.7822018163681,381.32565323590325L1489.9573439855953,488.4754529802962L1495.709191532908,370.79163352005435Z" fill="#000000" stroke="#000000"/><path d="M1495.709191532908,370.79163352005435L1489.9573439855953,488.4754529802962L1564.2141560984053,405.3865144163135Z" fill="#000000" stroke="#000000"/><path d="M1564.2141560984053,405.3865144163135L1489.9573439855953,488.4754529802962L1601.7955698495227,470.46321904801897Z" fill="#000000" stroke="#000000"/><path d="M1564.2141560984053,405.3865144163135L1601.7955698495227,470.46321904801897L1668.5598928855748,388.08129197742767Z" fill="#000000" stroke="#000000"/><path d="M1668.5598928855748,388.08129197742767L1601.7955698495227,470.46321904801897L1680.5587963636,491.82476201817246Z" fill="#000000" stroke="#000000"/><path d="M1668.5598928855748,388.08129197742767L1680.5587963636,491.82476201817246L1720.1214187041644,485.3691978787868Z" fill="#000000" stroke="#000000"/><path d="M1668.5598928855748,388.08129197742767L1720.1214187041644,485.3691978787868L1721.7562654456037,381.7675952007728Z" fill="#000000" stroke="#000000"/><path d="M1721.7562654456037,381.7675952007728L1720.1214187041644,485.3691978787868L1864.223731989161,373.809020667085Z" fill="#000000" stroke="#000000"/><path d="M1864.223731989161,373.809020667085L1720.1214187041644,485.3691978787868L1878.0261368686852,476.33536661912746Z" fill="#000000" stroke="#000000"/><path d="M1864.223731989161,373.809020667085L1878.0261368686852,476.33536661912746L1922.760328917096,399.3664913300771Z" fill="#000000" stroke="#000000"/><path d="M1922.760328917096,399.3664913300771L1878.0261368686852,476.33536661912746L1931.9442419451057,514.0118886742938Z" fill="#000000" stroke="#000000"/><path d="M1922.760328917096,399.3664913300771L1931.9442419451057,514.0118886742938L2010.6446715485763,476.9800933716096Z" fill="#000000" stroke="#000000"/><path d="M1922.760328917096,399.3664913300771L2010.6446715485763,476.9800933716096L2029.814616022364,428.4959980585434Z" fill="#000000" stroke="#000000"/><path d="M2029.814616022364,428.4959980585434L2010.6446715485763,476.9800933716096L2119.9061455758365,493.81806576076184Z" fill="#000000" stroke="#000000"/><path d="M2029.814616022364,428.4959980585434L2119.9061455758365,493.81806576076184L2097.3636644815024,417.6743451199358Z" fill="#000000" stroke="#000000"/><path d="M-73.49258990722343,529.1004248417426L594.5960351601256,530.4686496462625L57.541025037353215,511.813142110708Z" fill="#00325e" stroke="#00325e"/><path d="M57.541025037353215,511.813142110708L594.5960351601256,530.4686496462625L312.05788572918345,471.9077332276879Z" fill="#002d54" stroke="#002d54"/><path d="M57.541025037353215,511.813142110708L312.05788572918345,471.9077332276879L196.18806661093464,474.74063935052226Z" fill="#00325e" stroke="#00325e"/><path d="M57.541025037353215,511.813142110708L196.18806661093464,474.74063935052226L131.02331702418698,459.15169891717545Z" fill="#003563" stroke="#003563"/><path d="M312.05788572918345,471.9077332276879L594.5960351601256,530.4686496462625L417.7884239686731,473.74621570100686Z" fill="#00284b" stroke="#00284b"/><path d="M417.7884239686731,473.74621570100686L594.5960351601256,530.4686496462625L526.8788644284391,489.9018087392633Z" fill="#002546" stroke="#002546"/><path d="M594.5960351601256,530.4686496462625L1228.179998223131,526.5142195902657L928.9808733112096,501.4239480438289Z" fill="#001427" stroke="#001427"/><path d="M594.5960351601256,530.4686496462625L928.9808733112096,501.4239480438289L873.7150818444069,494.5229599045205Z" fill="#001930" stroke="#001930"/><path d="M594.5960351601256,530.4686496462625L873.7150818444069,494.5229599045205L782.6331165055701,490.35433411065696Z" fill="#001b34" stroke="#001b34"/><path d="M594.5960351601256,530.4686496462625L782.6331165055701,490.35433411065696L667.3339974015681,467.81545740448524Z" fill="#001e39" stroke="#001e39"/><path d="M928.9808733112096,501.4239480438289L1228.179998223131,526.5142195902657L1025.7922129734065,500.69644721528084Z" fill="#000e1c" stroke="#000e1c"/><path d="M1025.7922129734065,500.69644721528084L1228.179998223131,526.5142195902657L1135.8002591332647,488.4625282574218Z" fill="#000b17" stroke="#000b17"/><path d="M1228.179998223131,526.5142195902657L1931.9442419451057,514.0118886742938L1680.5587963636,491.82476201817246Z" fill="#000000" stroke="#000000"/><path d="M1228.179998223131,526.5142195902657L1680.5587963636,491.82476201817246L1489.9573439855953,488.4754529802962Z" fill="#000000" stroke="#000000"/><path d="M1228.179998223131,526.5142195902657L1489.9573439855953,488.4754529802962L1304.225848062833,504.8590788324569Z" fill="#000207" stroke="#000207"/><path d="M1304.225848062833,504.8590788324569L1489.9573439855953,488.4754529802962L1366.1065150640084,483.8546136498449Z" fill="#000004" stroke="#000004"/><path d="M1489.9573439855953,488.4754529802962L1680.5587963636,491.82476201817246L1601.7955698495227,470.46321904801897Z" fill="#000000" stroke="#000000"/><path d="M1680.5587963636,491.82476201817246L1931.9442419451057,514.0118886742938L1720.1214187041644,485.3691978787868Z" fill="#000000" stroke="#000000"/><path d="M1720.1214187041644,485.3691978787868L1931.9442419451057,514.0118886742938L1878.0261368686852,476.33536661912746Z" fill="#000000" stroke="#000000"/><path d="M1931.9442419451057,514.0118886742938L2119.9061455758365,493.81806576076184L2010.6446715485763,476.9800933716096Z" fill="#000000" stroke="#000000"/></g></svg>